<?xml version="1.0" standalone="no"?>
<!DOCTYPE svg PUBLIC "-//W3C//DTD SVG 20010904//EN"
 "http://www.w3.org/TR/2001/REC-SVG-20010904/DTD/svg10.dtd">
<svg version="1.0" xmlns="http://www.w3.org/2000/svg"
 width="2000.000000pt" height="2000.000000pt" viewBox="0 0 2000.000000 2000.000000"
 preserveAspectRatio="xMidYMid meet">

<g transform="translate(0.000000,2000.000000) scale(0.100000,-0.100000)"
fill="#000000" stroke="none">
<path d="M7835 17854 c-60 -13 -150 -32 -200 -43 -77 -16 -235 -60 -470 -132
-138 -42 -158 -49 -305 -116 -48 -22 -86 -39 -200 -92 -14 -6 -43 -22 -65 -36
-53 -32 -91 -53 -167 -94 -35 -18 -70 -40 -79 -47 -8 -8 -20 -14 -26 -14 -6 0
-33 -17 -60 -38 -26 -21 -64 -48 -83 -59 -20 -12 -47 -32 -60 -44 -14 -12 -48
-37 -76 -55 -28 -18 -82 -61 -121 -96 -38 -35 -114 -101 -168 -148 -159 -137
-415 -414 -507 -549 -28 -40 -56 -81 -64 -90 -33 -38 -95 -130 -119 -175 -14
-26 -34 -60 -45 -73 -11 -14 -20 -31 -20 -38 0 -7 -6 -17 -13 -23 -6 -6 -27
-39 -46 -74 -18 -35 -44 -81 -57 -103 -13 -22 -26 -47 -30 -55 -11 -25 -66
-151 -103 -232 -43 -97 -59 -137 -85 -223 -15 -49 -33 -104 -41 -121 -8 -18
-17 -49 -21 -70 -4 -22 -15 -56 -25 -76 -11 -21 -19 -48 -19 -61 0 -14 -9 -53
-20 -87 -11 -34 -20 -77 -20 -94 0 -17 -9 -60 -19 -96 -21 -70 -50 -243 -76
-460 -41 -326 -43 -1005 -5 -1345 27 -235 77 -519 120 -675 5 -19 16 -60 24
-90 25 -94 57 -197 113 -355 50 -141 62 -171 108 -270 8 -16 17 -42 21 -57 3
-15 12 -32 20 -39 8 -6 14 -17 14 -25 0 -15 63 -137 142 -274 31 -52 69 -122
87 -155 34 -64 117 -197 194 -310 26 -39 72 -106 102 -150 89 -132 117 -170
173 -233 29 -33 69 -82 89 -109 206 -273 642 -692 1137 -1093 45 -36 142 -115
216 -175 74 -61 162 -130 195 -155 33 -25 74 -57 90 -72 17 -16 33 -28 37 -28
3 0 30 -19 60 -43 47 -39 205 -159 385 -293 34 -25 82 -58 105 -74 24 -15 52
-36 63 -46 11 -11 45 -36 75 -57 75 -51 124 -87 265 -192 66 -50 143 -105 170
-124 28 -19 52 -37 55 -41 3 -4 41 -32 85 -64 44 -31 118 -86 165 -121 47 -36
114 -86 150 -112 36 -26 111 -84 167 -128 55 -44 111 -87 124 -95 45 -31 447
-351 514 -411 408 -363 554 -519 749 -799 98 -140 246 -417 246 -460 0 -6 8
-32 19 -58 49 -124 101 -362 101 -467 0 -37 5 -121 11 -188 20 -217 -13 -608
-67 -779 -8 -26 -18 -66 -23 -90 -10 -47 -36 -126 -57 -173 -7 -16 -16 -42
-20 -58 -3 -15 -10 -29 -14 -32 -4 -2 -24 -40 -45 -82 -49 -101 -138 -236
-193 -293 l-43 -45 48 -22 c26 -13 56 -23 65 -23 10 0 32 -9 50 -20 18 -11 49
-20 68 -20 20 0 47 -8 60 -17 18 -13 56 -20 135 -26 155 -10 163 -10 209 12
82 40 286 228 389 359 110 140 267 405 267 452 0 6 6 21 14 33 26 40 60 150
96 312 6 28 20 86 30 130 28 120 45 465 31 628 -6 70 -11 156 -11 191 0 35 -7
85 -15 112 -8 27 -20 78 -25 114 -12 82 -78 283 -131 400 -53 119 -138 267
-223 391 -106 155 -330 405 -510 567 -129 117 -490 412 -661 542 -49 37 -135
102 -190 144 -174 134 -566 427 -594 444 -14 9 -49 34 -76 55 -28 21 -124 94
-215 161 -348 259 -736 550 -852 641 -34 27 -91 71 -126 97 -61 46 -137 107
-267 213 -33 28 -95 77 -136 110 -115 93 -328 273 -389 329 -31 28 -85 76
-120 106 -102 86 -476 458 -538 535 -31 39 -82 99 -112 135 -86 99 -172 209
-205 262 -16 26 -54 82 -84 125 -153 222 -182 266 -236 363 -32 58 -77 137
-100 175 -70 117 -113 200 -186 361 -38 85 -69 156 -69 159 0 7 -68 185 -81
210 -5 11 -16 43 -23 70 -8 28 -28 95 -44 150 -63 207 -135 546 -151 710 -6
55 -18 143 -27 195 -24 137 -23 1067 1 1210 8 52 20 144 26 204 11 115 36 268
62 376 9 36 26 112 38 170 11 58 29 125 39 150 10 25 22 63 28 85 27 107 65
219 98 290 13 28 24 56 24 63 0 7 4 20 10 30 5 9 34 76 65 147 31 72 87 182
124 245 38 63 94 159 125 213 31 53 76 121 99 150 23 28 55 72 72 97 45 68
201 260 239 295 6 6 52 53 101 105 50 52 113 115 140 140 153 136 300 257 340
277 17 9 48 30 70 48 151 120 538 343 715 411 36 14 103 43 150 65 l85 39 -60
-1 c-33 -1 -109 -12 -170 -25z"/>
<path d="M10038 15673 c-10 -2 -18 -9 -18 -13 0 -5 -15 -17 -32 -26 -59 -30
-225 -174 -300 -261 l-38 -44 27 -23 c16 -13 62 -42 103 -66 175 -101 344
-250 464 -410 72 -97 149 -213 166 -253 6 -12 14 -29 19 -37 19 -31 89 -187
99 -220 6 -19 25 -75 42 -125 16 -49 30 -97 30 -106 0 -8 9 -45 19 -80 51
-171 70 -443 71 -1007 0 -289 3 -352 17 -405 20 -76 62 -139 112 -172 82 -55
81 -55 1301 -55 1077 0 1128 1 1199 20 54 14 83 27 108 52 34 33 93 126 93
147 0 8 -209 11 -785 11 -755 0 -788 1 -841 20 -31 10 -72 31 -91 46 -45 34
-88 125 -102 212 -5 37 -12 288 -14 557 -4 455 -6 498 -26 600 -13 61 -31 155
-42 210 -77 388 -305 790 -591 1043 -174 153 -442 300 -620 338 -40 8 -112 24
-159 35 -80 18 -170 23 -211 12z"/>
<path d="M4659 5546 c-67 -18 -106 -44 -163 -110 l-51 -58 -3 -567 c-3 -531
-2 -578 18 -761 26 -222 69 -495 99 -620 12 -47 28 -117 36 -156 8 -40 21 -87
28 -105 8 -19 25 -68 37 -109 12 -41 31 -98 41 -125 11 -28 19 -57 19 -65 0
-7 9 -32 19 -54 11 -23 29 -66 41 -96 41 -101 174 -378 215 -445 13 -22 42
-71 65 -110 22 -38 46 -79 53 -90 30 -51 98 -149 167 -240 41 -54 80 -107 85
-116 20 -34 153 -178 320 -345 230 -231 321 -309 520 -447 202 -141 238 -164
320 -206 22 -12 47 -25 55 -30 29 -19 225 -127 260 -143 89 -42 150 -68 160
-68 7 0 24 -6 38 -14 81 -44 413 -155 582 -195 47 -10 117 -27 155 -36 39 -10
103 -24 142 -31 40 -7 96 -20 125 -28 54 -15 357 -50 523 -61 306 -19 494 -24
602 -15 65 5 204 14 308 20 257 14 462 37 565 61 175 42 409 95 460 105 14 3
39 11 55 19 17 8 46 17 66 20 19 3 44 12 55 21 18 14 17 15 -11 9 -105 -21
-971 -33 -1107 -15 -40 5 -122 14 -183 20 -130 12 -294 35 -385 55 -36 8 -98
19 -138 25 -41 6 -82 14 -91 20 -10 5 -48 14 -84 20 -36 5 -78 17 -94 24 -15
8 -64 24 -108 36 -44 12 -91 27 -105 32 -14 6 -79 28 -144 49 -66 21 -146 52
-179 69 -33 16 -65 30 -70 30 -10 0 -57 21 -147 64 -24 11 -92 48 -150 80 -58
33 -125 70 -150 83 -63 33 -213 126 -247 153 -15 12 -83 61 -150 109 -67 47
-143 107 -170 132 -26 25 -95 86 -153 135 -92 79 -183 173 -261 268 -13 16
-49 56 -80 90 -170 184 -459 623 -572 866 -82 179 -147 329 -162 380 -9 30
-25 76 -36 102 -10 26 -19 53 -19 60 0 7 -6 25 -14 39 -12 25 -39 114 -80 275
-21 85 -71 339 -90 459 -49 321 -50 326 -54 948 l-4 597 -366 -1 c-257 0 -381
-4 -413 -13z"/>
<path d="M11905 620 c-19 -8 -19 -9 3 -9 12 -1 22 4 22 9 0 6 -1 10 -2 9 -2 0
-12 -4 -23 -9z"/>
</g>
</svg>
